<svg width="18" height="18" viewBox="0 0 18 18" fill="none" xmlns="http://www.w3.org/2000/svg">
<path fill-rule="evenodd" clip-rule="evenodd" d="M9 0C4.02944 0 0 4.02944 0 9C0 13.9705 4.02944 18 9 18C13.9705 18 18 13.9705 18 9C18 4.02944 13.9705 0 9 0ZM6.53432 5.59269C6.46004 5.14697 6.03848 4.84586 5.59276 4.92015C5.14704 4.99444 4.84594 5.41599 4.92023 5.86171L5.3069 8.18174H4.09091C3.63904 8.18174 3.27273 8.54804 3.27273 8.99992C3.27273 9.4518 3.63904 9.8181 4.09091 9.8181H5.57962L6.1475 13.2253C6.20747 13.5852 6.49842 13.8618 6.86081 13.9036C7.2232 13.9454 7.56949 13.7423 7.70981 13.4055L9 10.309L10.2902 13.4055C10.4305 13.7423 10.7768 13.9454 11.1392 13.9036C11.5016 13.8618 11.7925 13.5852 11.8525 13.2253L12.4204 9.8181H13.9091C14.361 9.8181 14.7273 9.4518 14.7273 8.99992C14.7273 8.54804 14.361 8.18174 13.9091 8.18174H12.6931L13.0798 5.86171C13.1541 5.41599 12.853 4.99444 12.4072 4.92015C11.9615 4.84586 11.54 5.14697 11.4657 5.59269L10.7062 10.1494L9.75526 7.86706C9.6282 7.56221 9.3303 7.36356 9 7.36356C8.6697 7.36356 8.3718 7.56221 8.24474 7.86706L7.29377 10.1494L6.53432 5.59269Z" fill="#999999"/>
</svg>
